<svg id="Layer_1" data-name="Layer 1" xmlns="http://www.w3.org/2000/svg" viewBox="0 0 642.17 174.39"><defs><style>.cls-1{fill:#0091dd;}.cls-2{fill:#fff;}</style></defs><title>lo</title><path class="cls-1" d="M219.25,221.6a179,179,0,0,0-39.87-14.08c-34-7-63.33-5.86-89.13,3.52C58.37,225.05,41,242.7,41,277.88c1.17,24.63,19,44.36,49.25,53.95V260.29a43.62,43.62,0,0,0-18.76,28.15C69.58,263.78,82,245.38,119.57,238v37.53H152.4v-38.7a147.44,147.44,0,0,1,66.85,18.76Z" transform="translate(-41 -203)"/><path class="cls-1" d="M52.73,358.8A178.83,178.83,0,0,0,92.6,372.87c34,7,63.32,5.86,89.12-3.52,31.88-14,49.25-31.66,49.25-66.84-1.17-24.63-19-44.36-49.25-53.94V320.1A43.56,43.56,0,0,0,200.48,292C202.4,316.62,190,335,152.4,342.38V304.86H119.57v38.69a147.39,147.39,0,0,1-66.84-18.76Z" transform="translate(-41 -203)"/><path class="cls-2" d="M306.86,247.77c-6,.58-6.62.94-6.62,7V284c0,6.11.65,6.33,6.62,7v2H287.37v-2c6-.72,6.61-.87,6.61-7V269.44H269.11V284c0,6,.59,6.26,6.55,7v2H256.24v-2c5.89-.65,6.55-.87,6.55-7V254.82c0-6.11-.66-6.47-6.55-7v-2h19.42v2c-5.82.5-6.55,1-6.55,7v11.56H294V254.82c0-6-.8-6.55-6.61-7v-2h19.49Z" transform="translate(-41 -203)"/><path class="cls-2" d="M338.2,256.86c-1.23-4.8-3.56-9.6-10-9.6-5.67,0-7.85,4-7.85,7.85,0,5.24,3.49,7.78,9.23,10.69s12.51,6.26,12.51,14.47c0,7.71-6.55,13.82-15.93,13.82a37.15,37.15,0,0,1-11.2-2.25c-.51-1.82-1.45-7.79-2-11.2l2.25-.59c1.24,4.51,4.44,11.35,11.93,11.35,5.53,0,8.73-3.42,8.73-8.65,0-5.46-3.78-7.93-9.38-10.91-4.73-2.55-12-6.11-12-14.4,0-7,5.16-12.73,14.76-12.73,4.29,0,8.44,1.09,10,1.24.29,2.62.59,5.74,1.17,10.47Z" transform="translate(-41 -203)"/><path class="cls-2" d="M416.24,247.77c-6,.58-6.62.94-6.62,7V284c0,6.11.65,6.33,6.62,7v2H396.75v-2c6-.72,6.61-.87,6.61-7V269.44H378.49V284c0,6,.58,6.26,6.55,7v2H365.62v-2c5.89-.65,6.55-.87,6.55-7V254.82c0-6.11-.66-6.47-6.55-7v-2H385v2c-5.82.5-6.55,1-6.55,7v11.56h24.87V254.82c0-6-.8-6.55-6.61-7v-2h19.49Z" transform="translate(-41 -203)"/><path class="cls-2" d="M446.71,286.82c-4.66,5.82-9.75,7.05-12.07,7.05-8.88,0-14.26-7.27-14.26-15.63a18.68,18.68,0,0,1,4.73-12.73A14.9,14.9,0,0,1,436,260.2a11.35,11.35,0,0,1,11.12,11.27c-.07,1.46-.29,2.11-1.45,2.4-1.46.29-10.77.95-19.42,1.24-.22,9.74,5.75,13.74,10.91,13.74,3,0,5.74-1.23,8.43-3.7ZM434.2,263c-3.35,0-6.62,3.13-7.64,9,4.08,0,8.15,0,12.44-.22,1.31,0,1.75-.36,1.75-1.45C440.82,266.46,438.27,263,434.2,263Z" transform="translate(-41 -203)"/><path class="cls-2" d="M475.22,293.87a5.34,5.34,0,0,1-3.42-1.38,6.86,6.86,0,0,1-1.75-3.27c-2.91,2-6.47,4.65-8.72,4.65a8.92,8.92,0,0,1-8.88-8.94c0-3.57,2-5.89,6-7.28,4.43-1.52,9.89-3.41,11.49-4.72v-1.46c0-5.16-2.62-8.14-6.4-8.14a4.24,4.24,0,0,0-3.42,1.67,15.52,15.52,0,0,0-2,4.73A2,2,0,0,1,456,271.4a3.5,3.5,0,0,1-3.2-3.2c0-1,.94-1.89,2.4-2.91,2.11-1.53,6.32-4.22,10.47-5.09a9.57,9.57,0,0,1,9.82,10.4v14c0,3.34,1.23,4.36,2.54,4.36a5.71,5.71,0,0,0,2.62-.8l.73,2Zm-5.31-18.4c-1.6.8-5.09,2.33-6.77,3.06-2.76,1.23-4.43,2.62-4.43,5.31a5.29,5.29,0,0,0,5.23,5.6,9.72,9.72,0,0,0,6-2.62Z" transform="translate(-41 -203)"/><path class="cls-2" d="M483.36,293v-2c4.66-.43,5.24-.8,5.24-5.6V250.53c0-4.44-.36-4.87-5-5.46v-1.89a51.12,51.12,0,0,0,10.76-2.47v44.65c0,4.8.44,5.17,5.17,5.6v2Z" transform="translate(-41 -203)"/><path class="cls-2" d="M517.25,292.93a7.36,7.36,0,0,1-3.12.94c-4.66,0-7.13-2.83-7.13-8.65V264.06h-5l-.29-.88,2-2.11H507V255c1.38-1.46,3.49-3.35,4.87-4.8l1.09.14c-.14,3.06-.22,7.27-.22,10.76H521a2.29,2.29,0,0,1-.44,3h-7.86v18.61c0,5.89,2.33,7,4.22,7a10.39,10.39,0,0,0,4.44-1.16l.65,1.89Z" transform="translate(-41 -203)"/><path class="cls-2" d="M545.32,293v-2c4.22-.43,4.8-.8,4.8-5.6V273.44c0-6-2.32-9.09-7.2-9a10.36,10.36,0,0,0-7.7,3.78v17.16c0,4.73.58,5.17,4.94,5.6v2H524.31v-2c4.22-.36,5.16-.72,5.16-5.6V250.31c0-3.85-.22-4.8-5.09-5.24v-1.89a44.89,44.89,0,0,0,10.84-2.47v24.8c2.61-2.62,6.61-5.31,10.54-5.31,6,0,10.11,3.71,10.11,12.44v12.8c0,4.8.58,5.16,4.8,5.52v2Z" transform="translate(-41 -203)"/><path class="cls-2" d="M592.31,286.45c-3.2,4.22-8.08,7.42-12.44,7.42-9.24,0-14.69-7.49-14.69-15.27,0-5.75,2.47-10.54,7.34-14.25a19.22,19.22,0,0,1,11.06-4.15,10.75,10.75,0,0,1,6.76,2,2.28,2.28,0,0,1,1.17,2.1,3.67,3.67,0,0,1-2.62,3.28c-.37,0-.66-.15-1.38-.73a10.81,10.81,0,0,0-7.35-3.06c-4.8,0-9,4.08-9,11.64-.07,10.11,6.84,13.45,11.06,13.45,3,0,5.52-.8,8.87-4Z" transform="translate(-41 -203)"/><path class="cls-2" d="M619.29,293.87a5.34,5.34,0,0,1-3.42-1.38,6.86,6.86,0,0,1-1.75-3.27c-2.91,2-6.47,4.65-8.72,4.65a8.92,8.92,0,0,1-8.88-8.94c0-3.57,2-5.89,6-7.28,4.43-1.52,9.89-3.41,11.49-4.72v-1.46c0-5.16-2.62-8.14-6.4-8.14a4.24,4.24,0,0,0-3.42,1.67,15.52,15.52,0,0,0-2,4.73,2,2,0,0,1-2.11,1.67,3.5,3.5,0,0,1-3.2-3.2c0-1,.94-1.89,2.4-2.91,2.11-1.53,6.32-4.22,10.47-5.09a9.57,9.57,0,0,1,9.82,10.4v14c0,3.34,1.23,4.36,2.54,4.36a5.71,5.71,0,0,0,2.62-.8l.73,2ZM614,275.47c-1.6.8-5.09,2.33-6.77,3.06-2.76,1.23-4.43,2.62-4.43,5.31a5.29,5.29,0,0,0,5.23,5.6,9.72,9.72,0,0,0,6-2.62Z" transform="translate(-41 -203)"/><path class="cls-2" d="M645.25,293H628.52v-2c4.59-.43,5-.8,5-5.52V270.31c0-4.8-.29-5-4.51-5.53V263a40.05,40.05,0,0,0,10.26-3v8c2.54-3.78,5.6-7.78,9.23-7.78,2.69,0,4.22,1.67,4.22,3.49a4.88,4.88,0,0,1-2.47,4,1.43,1.43,0,0,1-1.89-.14c-1.09-1.09-2-1.82-3.28-1.82-1.52,0-4.21,2.25-5.81,6v13.67c0,4.8.36,5.17,6,5.6Z" transform="translate(-41 -203)"/><path class="cls-2" d="M681.61,286.82c-4.65,5.82-9.74,7.05-12.07,7.05-8.87,0-14.25-7.27-14.25-15.63A18.68,18.68,0,0,1,660,265.51a14.93,14.93,0,0,1,10.84-5.31A11.35,11.35,0,0,1,682,271.47c-.08,1.46-.29,2.11-1.46,2.4-1.45.29-10.76.95-19.41,1.24-.22,9.74,5.74,13.74,10.9,13.74,3,0,5.75-1.23,8.44-3.7ZM669.11,263c-3.35,0-6.62,3.13-7.64,9,4.07,0,8.14,0,12.44-.22,1.3,0,1.74-.36,1.74-1.45C675.72,266.46,673.18,263,669.11,263Z" transform="translate(-41 -203)"/><path class="cls-2" d="M289.67,348.89c-.74,0-1.37-.06-2.11-.11-4.17-.29-6.4-1.38-8.92-4.92-2.11-2.91-4.17-6.52-6-9.43-1.14-1.83-1.89-2.17-4.8-2.17h-2v9c0,4.86.63,5.15,5.2,5.6v1.6H255.78v-1.6c4.74-.51,5.14-.74,5.14-5.6V318.42c0-4.85-.63-5-5.14-5.54v-1.6h14.57c4.18,0,7,.51,9.15,1.94a8.56,8.56,0,0,1,3.89,7.55c0,4.91-3.15,8-7.38,9.83,1,1.77,3.49,5.6,5.2,8.17a52.5,52.5,0,0,0,4.52,5.89,8.19,8.19,0,0,0,4.17,2.63Zm-21.09-18.58c3,0,4.86-.45,6.29-1.65,2.23-1.66,3.14-4,3.14-7,0-6.12-4.06-8.35-8.46-8.35a5.28,5.28,0,0,0-3,.57c-.51.4-.68,1-.68,2.46v14Z" transform="translate(-41 -203)"/><path class="cls-2" d="M312.71,343.58c-3.66,4.57-7.66,5.54-9.49,5.54-7,0-11.2-5.72-11.2-12.29a14.67,14.67,0,0,1,3.71-10,11.73,11.73,0,0,1,8.52-4.18,8.92,8.92,0,0,1,8.74,8.86c-.05,1.15-.22,1.66-1.14,1.89-1.14.23-8.46.74-15.26,1-.17,7.66,4.52,10.81,8.57,10.81a9.67,9.67,0,0,0,6.63-2.92Zm-9.83-18.75c-2.63,0-5.2,2.45-6,7.08,3.2,0,6.4,0,9.77-.17,1,0,1.37-.28,1.37-1.14C308.08,327.57,306.08,324.83,302.88,324.83Z" transform="translate(-41 -203)"/><path class="cls-2" d="M343,324.88c-3.08.4-3.48.86-5,4.29-1.89,4.57-5.14,12.18-8.12,19.89h-1.65c-2.4-6.57-5.2-13.37-7.89-20.06-1.32-3.32-1.77-3.66-4.75-4.12v-1.54h11.66v1.54c-3.14.4-3.25.8-2.34,3.26,1.43,3.95,3.83,10,5.43,14,2.06-5.09,3.95-9.78,5.2-13.44,1-2.8.8-3.43-3-3.83v-1.54H343Z" transform="translate(-41 -203)"/><path class="cls-2" d="M365.18,343.58c-3.66,4.57-7.66,5.54-9.49,5.54-7,0-11.2-5.72-11.2-12.29a14.63,14.63,0,0,1,3.72-10,11.71,11.71,0,0,1,8.51-4.18,8.92,8.92,0,0,1,8.75,8.86c-.06,1.15-.23,1.66-1.15,1.89-1.14.23-8.45.74-15.26,1-.17,7.66,4.52,10.81,8.58,10.81a9.7,9.7,0,0,0,6.63-2.92Zm-9.83-18.75c-2.63,0-5.2,2.45-6,7.08,3.2,0,6.4,0,9.77-.17,1,0,1.38-.28,1.38-1.14C360.55,327.57,358.55,324.83,355.35,324.83Z" transform="translate(-41 -203)"/><path class="cls-2" d="M385.3,348.43v-1.6c3.32-.34,3.66-.74,3.66-4.63v-9.43c0-4-1.43-6.69-5.2-6.69-2.34,0-4.57,1.38-6.35,3v13.37c0,3.95.35,4.06,3.72,4.4v1.6H368.78v-1.6c3.78-.4,4.12-.63,4.12-4.4V330.66c0-3.72-.4-3.89-3.49-4.4v-1.49a32.37,32.37,0,0,0,8-2.29V327c1.15-.8,2.41-1.66,3.89-2.63a8.77,8.77,0,0,1,4.75-1.72c4.57,0,7.43,3.38,7.43,8.92v10.86c0,3.89.34,4.06,3.65,4.4v1.6Z" transform="translate(-41 -203)"/><path class="cls-2" d="M427.89,347.12a65.45,65.45,0,0,0-8.75,2v-4.4c-3.08,2.57-5.6,4.4-8.74,4.4-3.83,0-7.15-2.34-7.15-8.57V329.46c0-3.09-.46-3.43-1.88-3.72l-1.6-.28V324a77.32,77.32,0,0,0,8.17-1c-.17,1.83-.17,4.57-.17,8.35v7.77c0,5,2.63,6.46,5.2,6.46a9,9,0,0,0,6.17-2.75V329.46c0-3.09-.68-3.49-2.63-3.78l-1.83-.22V324a80.45,80.45,0,0,0,9-1v19.15c0,2.86.46,3.26,2.63,3.37l1.6.06Z" transform="translate(-41 -203)"/><path class="cls-2" d="M451.72,343.58c-3.65,4.57-7.65,5.54-9.48,5.54-7,0-11.21-5.72-11.21-12.29a14.68,14.68,0,0,1,3.72-10,11.71,11.71,0,0,1,8.52-4.18,8.92,8.92,0,0,1,8.74,8.86c-.06,1.15-.23,1.66-1.14,1.89-1.15.23-8.46.74-15.26,1-.18,7.66,4.51,10.81,8.57,10.81a9.68,9.68,0,0,0,6.63-2.92Zm-9.83-18.75c-2.63,0-5.2,2.45-6,7.08,3.2,0,6.4,0,9.78-.17,1,0,1.37-.28,1.37-1.14C447.09,327.57,445.09,324.83,441.89,324.83Z" transform="translate(-41 -203)"/><path class="cls-2" d="M489.34,320c-1-3.78-2.8-7.55-7.84-7.55-4.45,0-6.17,3.14-6.17,6.17,0,4.12,2.75,6.12,7.26,8.41s9.83,4.91,9.83,11.37c0,6.06-5.14,10.86-12.52,10.86a29,29,0,0,1-8.8-1.77c-.4-1.43-1.14-6.12-1.54-8.8l1.77-.46c1,3.54,3.49,8.92,9.38,8.92,4.34,0,6.85-2.69,6.85-6.81,0-4.28-3-6.23-7.37-8.57-3.72-2-9.43-4.8-9.43-11.32,0-5.48,4.06-10,11.6-10a53,53,0,0,1,7.83,1c.23,2.06.46,4.52.92,8.23Z" transform="translate(-41 -203)"/><path class="cls-2" d="M510.66,322.65c7.14,0,12.46,5.43,12.46,12.81,0,9.26-6.86,13.66-12.46,13.66A12.55,12.55,0,0,1,498,336.37C498,327.06,505.23,322.65,510.66,322.65Zm-.69,2c-3.49,0-6.63,3.37-6.63,10,0,7.26,3.2,12.52,7.89,12.52,3.54,0,6.51-2.57,6.51-10.4C517.74,330,515,324.6,510,324.6Z" transform="translate(-41 -203)"/><path class="cls-2" d="M526.32,348.43v-1.6c3.66-.34,4.11-.63,4.11-4.4V315.05c0-3.48-.28-3.83-3.94-4.28v-1.49a40.67,40.67,0,0,0,8.46-1.94v35.09c0,3.77.34,4.06,4.06,4.4v1.6Z" transform="translate(-41 -203)"/><path class="cls-2" d="M569.48,347.12a65.1,65.1,0,0,0-8.75,2v-4.4c-3.09,2.57-5.6,4.4-8.75,4.4-3.83,0-7.14-2.34-7.14-8.57V329.46c0-3.09-.46-3.43-1.89-3.72l-1.6-.28V324a77.53,77.53,0,0,0,8.18-1c-.17,1.83-.17,4.57-.17,8.35v7.77c0,5,2.62,6.46,5.2,6.46a9,9,0,0,0,6.17-2.75V329.46c0-3.09-.69-3.49-2.63-3.78l-1.83-.22V324a80.45,80.45,0,0,0,9-1v19.15c0,2.86.45,3.26,2.63,3.37l1.6.06Z" transform="translate(-41 -203)"/><path class="cls-2" d="M583.54,348.38a5.83,5.83,0,0,1-2.46.74c-3.66,0-5.6-2.23-5.6-6.8V325.68h-4l-.22-.68,1.54-1.66h2.63v-4.8c1.08-1.14,2.74-2.63,3.83-3.77l.86.11c-.12,2.4-.18,5.72-.18,8.46h6.52a1.79,1.79,0,0,1-.34,2.34H580v14.64c0,4.63,1.83,5.48,3.32,5.48a8.2,8.2,0,0,0,3.49-.91l.51,1.49Z" transform="translate(-41 -203)"/><path class="cls-2" d="M589.65,348.43v-1.6c3.6-.34,4-.63,4-4.51V330.54c0-3.54-.17-3.77-3.6-4.34v-1.37a37.62,37.62,0,0,0,8.12-2.29v19.78c0,3.88.4,4.17,4.12,4.51v1.6Zm6-31.49a3.13,3.13,0,0,1-3-3,3.08,3.08,0,0,1,3.09-3.14,3,3,0,0,1,2.91,3.14A3,3,0,0,1,595.6,316.94Z" transform="translate(-41 -203)"/><path class="cls-2" d="M618.18,322.65c7.14,0,12.46,5.43,12.46,12.81,0,9.26-6.86,13.66-12.46,13.66a12.55,12.55,0,0,1-12.69-12.75C605.49,327.06,612.75,322.65,618.18,322.65Zm-.69,2c-3.49,0-6.63,3.37-6.63,10,0,7.26,3.2,12.52,7.89,12.52,3.54,0,6.51-2.57,6.51-10.4C625.26,330,622.52,324.6,617.49,324.6Z" transform="translate(-41 -203)"/><path class="cls-2" d="M650.93,348.43v-1.6c3.32-.34,3.66-.74,3.66-4.63v-9.43c0-4-1.43-6.69-5.2-6.69-2.35,0-4.58,1.38-6.35,3v13.37c0,3.95.34,4.06,3.72,4.4v1.6H634.41v-1.6c3.77-.4,4.12-.63,4.12-4.4V330.66c0-3.72-.4-3.89-3.49-4.4v-1.49a32.37,32.37,0,0,0,8-2.29V327c1.14-.8,2.4-1.66,3.89-2.63a8.77,8.77,0,0,1,4.74-1.72c4.58,0,7.43,3.38,7.43,8.92v10.86c0,3.89.35,4.06,3.66,4.4v1.6Z" transform="translate(-41 -203)"/><path class="cls-2" d="M680.6,330.14c-1-3.31-2.63-5.6-6.12-5.6a3.56,3.56,0,0,0-3.66,3.72c0,2.51,1.89,3.71,5,5.08,4.68,2.06,7.37,3.89,7.37,7.83,0,5.26-4.8,7.95-9.32,7.95a14.78,14.78,0,0,1-6.8-1.66c-.29-1.66-.8-4.91-1-6.8l1.66-.29c1,3.66,3,6.81,7,6.81a3.91,3.91,0,0,0,4.12-3.89c0-2.57-1.55-3.94-4.69-5.32-3.72-1.71-7.38-3.6-7.38-7.94,0-4.17,3.66-7.38,9-7.38a31.05,31.05,0,0,1,5.6.75c.17,1.37.57,5,.85,6.34Z" transform="translate(-41 -203)"/></svg>