<svg id="Layer_1" data-name="Layer 1" xmlns="http://www.w3.org/2000/svg" viewBox="0 0 431.22 395.86"><defs><style>.cls-1{fill:#0091dd;}</style></defs><title>0091</title><path class="cls-1" d="M609.6,153.35a406.48,406.48,0,0,0-90.5-31.94c-77.19-16-143.74-13.31-202.3,8C244.43,161.2,205,201.27,205,281.12c2.66,55.9,43.05,100.69,111.8,122.45V241.19c-22.36,15.27-36.88,36.33-42.59,63.89-4.34-56,23.82-97.73,109.13-114.46V275.8h74.54V188c54.28,2.41,105,16.23,151.72,42.59Z" transform="translate(-205 -111.14)"/><path class="cls-1" d="M231.62,464.79a406.66,406.66,0,0,0,90.5,31.94c77.2,16,143.74,13.31,202.3-8C596.79,457,636.22,416.88,636.22,337c-2.66-55.9-43.05-100.69-111.8-122.44V377c22.37-15.27,36.88-36.33,42.59-63.89,4.34,56-23.82,97.74-109.13,114.46V342.34H383.34v87.85c-54.28-2.41-105-16.24-151.72-42.59Z" transform="translate(-205 -111.14)"/></svg>