<svg width="594" height="533" viewBox="0 0 594 533" fill="none" xmlns="http://www.w3.org/2000/svg">
<g style="mix-blend-mode:multiply">
<path d="M570.767 332.657C548.055 391.41 480.769 381.197 426.376 386.122C319.709 395.769 273.671 548.073 150.449 495.849C14.0154 438.028 -12.7753 293.115 98.571 215.644C410.081 -1.60149 591.413 279.329 570.767 332.657Z" fill="url(#paint0_linear_35_467)"/>
</g>
<g clip-path="url(#clip0_35_467)">
<path d="M470.455 324.168C474.225 324.168 477.282 321.111 477.282 317.34C477.282 313.57 474.225 310.513 470.455 310.513C466.684 310.513 463.627 313.57 463.627 317.34C463.627 321.111 466.684 324.168 470.455 324.168Z" fill="#E0E0E0"/>
<path d="M463.627 324.168C467.398 324.168 470.455 321.111 470.455 317.34C470.455 313.57 467.398 310.513 463.627 310.513C459.857 310.513 456.8 313.57 456.8 317.34C456.8 321.111 459.857 324.168 463.627 324.168Z" fill="#EBEBEB"/>
<path d="M378.84 324.168C382.61 324.168 385.667 321.111 385.667 317.34C385.667 313.57 382.61 310.513 378.84 310.513C375.069 310.513 372.012 313.57 372.012 317.34C372.012 321.111 375.069 324.168 378.84 324.168Z" fill="#E0E0E0"/>
<path d="M469.795 160.354H354.675V311.882H469.795V160.354Z" fill="#EBEBEB"/>
<path d="M477.282 160.354H376.993V311.882H477.282V160.354Z" fill="#F5F5F5"/>
<path d="M469.014 168.196H386.063V304.213H469.014V168.196Z" stroke="#E0E0E0" stroke-width="2.0289" stroke-miterlimit="10"/>
<path d="M386.063 211.523H469.785" stroke="#E0E0E0" stroke-width="2.0289" stroke-miterlimit="10"/>
<path d="M386.063 258.837H469.785" stroke="#E0E0E0" stroke-width="2.0289" stroke-miterlimit="10"/>
<path d="M445.296 173.897H414.487V177.569H445.296V173.897Z" fill="#FAFAFA"/>
<path d="M445.296 217.458H414.487V221.13H445.296V217.458Z" fill="#FAFAFA"/>
<path d="M445.296 266.283H414.487V269.955H445.296V266.283Z" fill="#FAFAFA"/>
<path d="M372.002 324.168C375.773 324.168 378.83 321.111 378.83 317.34C378.83 313.57 375.773 310.513 372.002 310.513C368.232 310.513 365.175 313.57 365.175 317.34C365.175 321.111 368.232 324.168 372.002 324.168Z" fill="#EBEBEB"/>
<path d="M352.829 12.8024H143.629V157.138H352.829V12.8024Z" fill="#EBEBEB"/>
<path d="M356.907 12.8024H352.839V157.138H356.907V12.8024Z" fill="#E0E0E0"/>
<path d="M348.589 27.3496H149.432V149.986H348.589V27.3496Z" fill="#F5F5F5"/>
<path d="M245.937 149.986H227.9L176.021 27.167H194.047L245.937 149.986Z" fill="#FAFAFA"/>
<path d="M286.231 149.986H253.555L201.666 27.167H234.352L286.231 149.986Z" fill="#FAFAFA"/>
<path d="M334.711 150.037H316.674L264.795 27.2076H282.822L334.711 150.037Z" fill="#FAFAFA"/>
<path opacity="0.3" d="M356.907 5.42737H143.629V65.7161H356.907V5.42737Z" fill="#E0E0E0" stroke="#F0F0F0" stroke-width="1.01445" stroke-miterlimit="10"/>
<path d="M356.299 53.1368H143.629V55.0034H356.299V53.1368Z" fill="#FAFAFA"/>
<path d="M356.299 44.5039H143.629V46.3705H356.299V44.5039Z" fill="#FAFAFA"/>
<path d="M356.299 35.8608H143.629V37.7274H356.299V35.8608Z" fill="#FAFAFA"/>
<path d="M356.299 27.2279H143.629V29.0945H356.299V27.2279Z" fill="#FAFAFA"/>
<path d="M356.299 18.5848H143.629V20.4514H356.299V18.5848Z" fill="#FAFAFA"/>
<path d="M360.853 2.83032H141.113V5.36645H360.853V2.83032Z" fill="#E0E0E0"/>
<path d="M142.554 4.05786C142.554 6.33023 141.225 8.16638 139.592 8.16638C137.959 8.16638 136.64 6.33023 136.64 4.10858C136.64 1.88694 137.959 0.0507812 139.592 0.0507812C141.225 0.0507812 142.554 1.83621 142.554 4.05786Z" fill="#E0E0E0"/>
<path d="M363.806 4.05786C363.806 6.33023 362.477 8.16638 360.843 8.16638C359.21 8.16638 357.891 6.33023 357.891 4.10858C357.891 1.88694 359.21 0.0507812 360.843 0.0507812C362.477 0.0507812 363.806 1.83621 363.806 4.05786Z" fill="#E0E0E0"/>
<path d="M293.271 377C382.594 377 455.005 371.341 455.005 364.36C455.005 357.379 382.594 351.72 293.271 351.72C203.948 351.72 131.537 357.379 131.537 364.36C131.537 371.341 203.948 377 293.271 377Z" fill="#F5F5F5"/>
<path d="M447.021 82.0183L425.393 149.469C425.145 150.242 424.7 150.938 424.103 151.488C423.505 152.038 422.776 152.424 421.985 152.608C421.194 152.792 420.368 152.768 419.59 152.538C418.811 152.308 418.105 151.879 417.541 151.295L406.321 139.659C405.473 138.782 404.317 138.27 403.098 138.23C401.878 138.19 400.691 138.626 399.788 139.446L305.921 224.66C305.081 225.421 303.995 225.853 302.862 225.877C301.729 225.902 300.625 225.516 299.753 224.792L240.195 175.226C239.334 174.518 238.249 174.139 237.135 174.155C236.02 174.172 234.948 174.584 234.108 175.317L117 279.085L121.443 237.554C121.562 236.381 122.116 235.295 122.995 234.51L233.479 136.606C234.316 135.867 235.389 135.451 236.506 135.434C237.622 135.418 238.707 135.801 239.566 136.515L298.881 185.888C299.751 186.611 300.853 186.996 301.984 186.972C303.116 186.948 304.2 186.516 305.038 185.756L379.093 118.488C379.56 118.066 379.936 117.555 380.201 116.984C380.466 116.414 380.613 115.796 380.634 115.167C380.654 114.539 380.548 113.912 380.322 113.326C380.096 112.739 379.754 112.204 379.316 111.752L368.279 100.268C367.704 99.6692 367.297 98.9283 367.101 98.121C366.906 97.3137 366.927 96.4689 367.165 95.6728C367.402 94.8767 367.846 94.1577 368.452 93.5892C369.057 93.0207 369.803 92.623 370.612 92.4367L441.502 76.0127C442.31 75.8288 443.151 75.8616 443.942 76.1077C444.732 76.3538 445.444 76.8046 446.004 77.4142C446.564 78.0239 446.953 78.7709 447.132 79.5794C447.311 80.388 447.272 81.2294 447.021 82.0183Z" fill="#407BFF"/>
<path opacity="0.1" d="M446.99 82.1705L425.393 149.357C425.143 150.143 424.693 150.851 424.088 151.41C423.482 151.97 422.742 152.362 421.939 152.55C421.136 152.737 420.298 152.712 419.507 152.478C418.717 152.244 418.001 151.808 417.429 151.214L406.321 139.71C405.463 138.819 404.291 138.297 403.054 138.255C401.817 138.214 400.613 138.655 399.697 139.487L305.921 224.63C305.465 225.047 304.931 225.371 304.349 225.581C303.768 225.792 303.15 225.886 302.533 225.857C301.483 225.834 300.473 225.45 299.672 224.772L240.205 175.267C239.326 174.545 238.219 174.159 237.082 174.178C235.945 174.196 234.851 174.618 233.996 175.368L117 279.085L121.636 235.738L233.439 136.667C233.91 136.241 234.464 135.916 235.066 135.712C235.668 135.508 236.305 135.429 236.938 135.48C237.934 135.551 238.882 135.935 239.647 136.575L264.917 157.605L298.871 185.868C299.751 186.609 300.875 187 302.025 186.963C303.172 186.933 304.269 186.494 305.12 185.726L379.114 118.549C379.585 118.12 379.966 117.602 380.233 117.023C380.501 116.445 380.649 115.819 380.67 115.182C380.691 114.546 380.583 113.911 380.354 113.317C380.125 112.722 379.779 112.18 379.337 111.721L368.371 100.36C367.785 99.7526 367.372 99.0013 367.172 98.1824C366.971 97.3634 366.992 96.506 367.231 95.6975C367.47 94.8891 367.92 94.1586 368.533 93.5804C369.147 93.0022 369.903 92.5971 370.724 92.4063L441.37 76.0838C442.19 75.894 443.045 75.9246 443.85 76.1723C444.654 76.4201 445.378 76.8762 445.949 77.4944C446.519 78.1126 446.917 78.8708 447.099 79.6921C447.282 80.5134 447.245 81.3684 446.99 82.1705Z" fill="black"/>
<path d="M324.678 335.073H238.135V354.713H324.678V335.073Z" fill="#407BFF"/>
<path opacity="0.2" d="M249.092 335.073H246.748V354.713H249.092V335.073Z" fill="black"/>
<path opacity="0.2" d="M261.123 335.073H258.78V354.713H261.123V335.073Z" fill="black"/>
<path opacity="0.2" d="M273.164 354.723H270.821V335.073L273.164 335.428V354.723Z" fill="black"/>
<path opacity="0.2" d="M285.206 335.073H282.863V354.713H285.206V335.073Z" fill="black"/>
<path opacity="0.2" d="M297.237 335.073H294.894V354.713H297.237V335.073Z" fill="black"/>
<path opacity="0.2" d="M309.279 335.073H306.935V354.713H309.279V335.073Z" fill="black"/>
<path opacity="0.2" d="M321.32 335.073H318.977V354.713H321.32V335.073Z" fill="black"/>
<path opacity="0.09" d="M324.678 335.073H238.135V339.121H324.678V335.073Z" fill="black"/>
<path d="M338.17 315.433H251.628V335.073H338.17V315.433Z" fill="#407BFF"/>
<path opacity="0.2" d="M262.584 315.433H260.24V335.073H262.584V315.433Z" fill="black"/>
<path opacity="0.2" d="M274.625 315.433H272.282V335.073H274.625V315.433Z" fill="black"/>
<path opacity="0.2" d="M286.657 315.433H284.313V335.073H286.657V315.433Z" fill="black"/>
<path opacity="0.2" d="M298.698 315.433H296.355V335.073H298.698V315.433Z" fill="black"/>
<path opacity="0.2" d="M310.74 315.433H308.396V335.073H310.74V315.433Z" fill="black"/>
<path opacity="0.2" d="M322.771 315.433H320.428V335.073H322.771V315.433Z" fill="black"/>
<path opacity="0.2" d="M334.813 315.433H332.469V335.073H334.813V315.433Z" fill="black"/>
<path opacity="0.09" d="M338.17 315.433H251.628V319.481H338.17V315.433Z" fill="black"/>
<path d="M326.129 295.793H239.586V315.433H326.129V295.793Z" fill="#407BFF"/>
<path opacity="0.2" d="M250.542 295.793H248.199V315.433H250.542V295.793Z" fill="black"/>
<path opacity="0.2" d="M262.584 315.433H260.24V295.803L262.584 295.793V315.433Z" fill="black"/>
<path opacity="0.2" d="M274.625 295.793H272.282V315.433H274.625V295.793Z" fill="black"/>
<path opacity="0.2" d="M286.657 295.793H284.313V315.433H286.657V295.793Z" fill="black"/>
<path opacity="0.2" d="M298.698 315.433H296.355V295.793L298.698 295.803V315.433Z" fill="black"/>
<path opacity="0.2" d="M310.74 295.793H308.396V315.433H310.74V295.793Z" fill="black"/>
<path opacity="0.2" d="M322.771 295.793H320.428V315.433H322.771V295.793Z" fill="black"/>
<path opacity="0.09" d="M326.129 295.793H239.586V300.632H326.129V295.793Z" fill="black"/>
<path d="M338.17 276.164H251.628V295.803H338.17V276.164Z" fill="#407BFF"/>
<path opacity="0.2" d="M262.584 276.164H260.24V295.803H262.584V276.164Z" fill="black"/>
<path opacity="0.2" d="M274.625 276.164H272.282V295.803H274.625V276.164Z" fill="black"/>
<path opacity="0.2" d="M286.657 276.164H284.313V295.803H286.657V276.164Z" fill="black"/>
<path opacity="0.2" d="M298.698 276.164H296.355V295.803H298.698V276.164Z" fill="black"/>
<path opacity="0.2" d="M310.74 276.164H308.396V295.803H310.74V276.164Z" fill="black"/>
<path opacity="0.2" d="M322.771 295.793L320.428 295.803V276.164L322.771 276.509V295.793Z" fill="black"/>
<path opacity="0.2" d="M334.813 276.164H332.469V295.803H334.813V276.164Z" fill="black"/>
<path opacity="0.09" d="M338.17 276.164H251.628V280.211H338.17V276.164Z" fill="black"/>
<path d="M341.964 256.524H255.422V276.164H341.964V256.524Z" fill="#407BFF"/>
<path opacity="0.2" d="M266.378 256.524H264.034V276.164H266.378V256.524Z" fill="black"/>
<path opacity="0.2" d="M278.419 256.524H276.076V276.164H278.419V256.524Z" fill="black"/>
<path opacity="0.2" d="M290.461 256.524H288.117V276.164H290.461V256.524Z" fill="black"/>
<path opacity="0.2" d="M302.492 256.524H300.149V276.164H302.492V256.524Z" fill="black"/>
<path opacity="0.2" d="M314.534 256.524H312.19V276.164H314.534V256.524Z" fill="black"/>
<path opacity="0.2" d="M326.575 256.524H324.232V276.164H326.575V256.524Z" fill="black"/>
<path opacity="0.2" d="M338.607 256.524H336.263V276.164H338.607V256.524Z" fill="black"/>
<path opacity="0.09" d="M341.964 256.524H255.422V260.572H341.964V256.524Z" fill="black"/>
<path d="M331.678 236.884H245.135V256.524H331.678V236.884Z" fill="#407BFF"/>
<path opacity="0.2" d="M256.091 236.884H253.748V256.524H256.091V236.884Z" fill="black"/>
<path opacity="0.2" d="M268.123 236.884H265.779V256.524H268.123V236.884Z" fill="black"/>
<path opacity="0.2" d="M280.164 236.884H277.821V256.524H280.164V236.884Z" fill="black"/>
<path opacity="0.2" d="M292.206 236.884H289.862V256.524H292.206V236.884Z" fill="black"/>
<path opacity="0.2" d="M304.237 236.884H301.894V256.524H304.237V236.884Z" fill="black"/>
<path opacity="0.2" d="M316.279 236.884H313.935V256.524H316.279V236.884Z" fill="black"/>
<path opacity="0.2" d="M328.31 236.884H325.966V256.524H328.31V236.884Z" fill="black"/>
<path opacity="0.09" d="M331.678 236.884H245.135V240.932H331.678V236.884Z" fill="black"/>
<path d="M216.467 335.367H129.924V355.007H216.467V335.367Z" fill="#407BFF"/>
<path opacity="0.2" d="M140.88 335.367H138.537V355.007H140.88V335.367Z" fill="black"/>
<path opacity="0.2" d="M152.922 335.367H150.578V355.007H152.922V335.367Z" fill="black"/>
<path opacity="0.2" d="M164.953 335.367H162.61V355.007H164.953V335.367Z" fill="black"/>
<path opacity="0.2" d="M176.995 335.367H174.651V355.007H176.995V335.367Z" fill="black"/>
<path opacity="0.2" d="M189.026 335.367H186.683V355.007H189.026V335.367Z" fill="black"/>
<path opacity="0.2" d="M201.067 335.367H198.724V355.007H201.067V335.367Z" fill="black"/>
<path opacity="0.2" d="M213.109 335.367H210.766V355.007H213.109V335.367Z" fill="black"/>
<path opacity="0.09" d="M216.467 335.367H129.924V339.415H216.467V335.367Z" fill="black"/>
<path d="M220.545 315.727H134.002V335.367H220.545V315.727Z" fill="#407BFF"/>
<path opacity="0.2" d="M144.968 315.727H142.625V335.367H144.968V315.727Z" fill="black"/>
<path opacity="0.2" d="M157 315.727H154.656V335.367H157V315.727Z" fill="black"/>
<path opacity="0.2" d="M169.041 315.727H166.698V335.367H169.041V315.727Z" fill="black"/>
<path opacity="0.2" d="M181.073 315.727H178.729V335.367H181.073V315.727Z" fill="black"/>
<path opacity="0.2" d="M193.114 315.727H190.771V335.367H193.114V315.727Z" fill="black"/>
<path opacity="0.2" d="M205.156 315.727H202.812V335.367H205.156V315.727Z" fill="black"/>
<path opacity="0.2" d="M217.187 315.727H214.844V335.367H217.187V315.727Z" fill="black"/>
<path opacity="0.09" d="M220.545 315.727H134.002V319.43H220.545V315.727Z" fill="black"/>
<path d="M215.249 296.087H128.707V315.727H215.249V296.087Z" fill="#407BFF"/>
<path opacity="0.2" d="M139.663 296.087H137.319V315.727H139.663V296.087Z" fill="black"/>
<path opacity="0.2" d="M151.704 296.087H149.361V315.727H151.704V296.087Z" fill="black"/>
<path opacity="0.2" d="M163.736 296.087H161.392V315.727H163.736V296.087Z" fill="black"/>
<path opacity="0.2" d="M175.777 296.087H173.434V315.727H175.777V296.087Z" fill="black"/>
<path opacity="0.2" d="M187.809 296.087H185.465V315.727H187.809V296.087Z" fill="black"/>
<path opacity="0.2" d="M199.85 296.087H197.507V315.727H199.85V296.087Z" fill="black"/>
<path opacity="0.2" d="M211.892 296.087H209.548V315.727H211.892V296.087Z" fill="black"/>
<path opacity="0.09" d="M215.249 296.087H128.707V299.79H215.249V296.087Z" fill="black"/>
<path d="M405.347 286.237H386.387V355.544H405.347V286.237Z" fill="#407BFF"/>
<g opacity="0.4">
<path opacity="0.4" d="M405.357 304.68V318.771L386.387 337.731V322.575L405.357 304.68Z" fill="white"/>
<path opacity="0.4" d="M405.357 294.373V296.767L386.387 315.727V313.343L405.357 294.373Z" fill="white"/>
</g>
<path d="M428.7 308.555H409.74V355.534H428.7V308.555Z" fill="#407BFF"/>
<g opacity="0.4">
<path opacity="0.4" d="M428.7 322.412V336.351L409.74 355.311V340.318L428.7 322.412Z" fill="white"/>
<path opacity="0.4" d="M428.7 315.839V318.517L409.74 337.477V334.789L428.7 315.839Z" fill="white"/>
</g>
<path d="M382.005 252.923H363.045V355.534H382.005V252.923Z" fill="#407BFF"/>
<g opacity="0.4">
<path opacity="0.4" d="M382.005 272.187V286.207L363.045 305.177V290.092L382.005 272.187Z" fill="white"/>
<path opacity="0.4" d="M382.005 264.477V267.105L363.045 286.075V283.447L382.005 264.477Z" fill="white"/>
</g>
<path d="M374.822 261.505C374.539 261.959 374.126 262.319 373.638 262.539C373.149 262.759 372.607 262.829 372.079 262.741C371.55 262.652 371.06 262.409 370.67 262.042C370.28 261.675 370.007 261.201 369.887 260.679C369.766 260.157 369.803 259.611 369.993 259.11C370.182 258.609 370.516 258.176 370.952 257.865C371.388 257.553 371.907 257.379 372.442 257.362C372.978 257.345 373.506 257.488 373.96 257.772C374.263 257.959 374.526 258.205 374.733 258.494C374.941 258.784 375.089 259.112 375.169 259.459C375.249 259.806 375.26 260.165 375.2 260.517C375.141 260.868 375.012 261.204 374.822 261.505Z" fill="#263238"/>
<path d="M398.175 294.454C397.891 294.908 397.479 295.268 396.991 295.488C396.502 295.708 395.959 295.778 395.431 295.69C394.903 295.602 394.413 295.358 394.022 294.991C393.632 294.624 393.36 294.15 393.239 293.628C393.119 293.106 393.156 292.56 393.345 292.059C393.535 291.558 393.869 291.125 394.305 290.814C394.741 290.503 395.259 290.328 395.795 290.311C396.33 290.295 396.858 290.437 397.313 290.721C397.616 290.908 397.878 291.154 398.086 291.444C398.293 291.733 398.441 292.061 398.521 292.408C398.602 292.755 398.612 293.115 398.553 293.466C398.493 293.817 398.365 294.153 398.175 294.454Z" fill="#263238"/>
<path d="M421.518 316.762C421.233 317.215 420.82 317.573 420.331 317.792C419.843 318.01 419.301 318.079 418.773 317.99C418.246 317.9 417.756 317.657 417.367 317.29C416.978 316.923 416.706 316.448 416.586 315.927C416.466 315.406 416.503 314.86 416.692 314.36C416.882 313.86 417.215 313.427 417.65 313.115C418.086 312.804 418.603 312.629 419.138 312.612C419.673 312.595 420.201 312.736 420.655 313.019C420.958 313.207 421.221 313.454 421.429 313.744C421.637 314.035 421.785 314.363 421.865 314.711C421.945 315.059 421.956 315.419 421.896 315.771C421.836 316.123 421.708 316.46 421.518 316.762Z" fill="#263238"/>
<path d="M419.215 315.321L395.162 337.731L395.872 293.024L372.53 307.459V260.074" stroke="#263238" stroke-width="1.01445" stroke-miterlimit="10"/>
<path d="M202.031 135.48C202.031 135.48 195.579 145.066 194.098 145.989C192.617 146.913 172.156 143.098 162.143 137.965L156.959 131.452L149.168 128.703L144.694 137.559L150.872 141.617C150.872 141.617 154.829 146.162 159.252 144.904C159.252 144.904 175.199 155.312 186.642 157.97C198.085 160.628 200.743 157.544 204.08 154.835C207.418 152.127 216.254 139.223 216.254 139.223L202.031 135.48Z" fill="#B55B52"/>
<path d="M263.365 95.3583C263.365 95.3583 288.878 87.5775 297.572 81.156C297.572 81.156 310.689 65.1176 312.87 47.9734L309.918 39.0665L311.48 28.922L321.199 31.1031C321.199 31.1031 326.271 41.7751 320.093 50.1341C320.093 50.1341 318.429 74.9679 307.919 87.9021C297.41 100.836 264.491 109.51 264.491 109.51L263.365 95.3583Z" fill="#B55B52"/>
<path d="M272.515 189.154L270.425 114.085L286.839 106.284L276.269 87.4253C276.269 87.4253 263.476 91.1788 252.388 91.1788C237.669 91.1788 222.868 102.388 214.854 105.503C206.84 108.617 197.973 135.936 197.973 135.936L216.467 145.847L219.946 135.642C219.946 135.642 224.927 173.359 224.948 189.895L272.515 189.154Z" fill="#407BFF"/>
<path opacity="0.1" d="M272.515 189.154L270.425 114.085L286.839 106.284L276.269 87.4253C276.269 87.4253 263.476 91.1788 252.388 91.1788C237.669 91.1788 222.868 102.388 214.854 105.503C206.84 108.617 197.973 135.936 197.973 135.936L216.467 145.847L219.946 135.642C219.946 135.642 224.927 173.359 224.948 189.895L272.515 189.154Z" fill="white"/>
<path d="M235.041 84.3413C235.041 84.3413 222.219 85.6702 219.906 75.4852C219.906 75.4852 212.257 72.4418 217.694 64.8943C217.694 64.8943 210.654 54.415 219.642 51.3007C220.867 48.348 222.777 45.7295 225.215 43.662C227.653 41.5944 230.549 40.1373 233.662 39.4113C240.925 37.6259 238.866 41.5315 238.866 41.5315C238.866 41.5315 253.951 35.6984 256.112 42.1909C258.272 48.6834 246.535 51.5847 246.535 51.5847L235.041 84.3413Z" fill="#263238"/>
<path d="M243.056 82.4646C243.1 83.0737 243.178 83.6799 243.289 84.2804C243.806 87.3238 245.896 92.1729 250.958 93.7858C250.958 93.7858 251.668 99.203 243.289 98.2697C234.91 97.3364 230.923 95.835 230.923 95.835C232.206 89.2812 232.123 82.533 230.679 76.0127C230.679 76.0127 225.952 76.8141 223.284 74.1156C220.616 71.4172 221.57 64.5798 229.918 68.455C229.918 68.455 231.724 58.5033 225.861 55.5106C225.861 55.5106 237.334 57.1642 246.525 51.5847C246.525 51.5847 254.448 61.7292 253.332 71.4071C252.216 81.0849 243.056 82.4646 243.056 82.4646Z" fill="#B55B52"/>
<path d="M245.105 70.7377C245.105 70.7377 242.061 72.6854 238.714 69.8754" stroke="#263238" stroke-width="0.730404" stroke-linecap="round" stroke-linejoin="round"/>
<path d="M238.085 62.3684C238.267 63.1191 238.785 63.6263 239.241 63.5147C239.698 63.4031 239.921 62.7133 239.738 61.9626C239.556 61.2119 239.038 60.7148 238.582 60.8264C238.125 60.938 237.902 61.6278 238.085 62.3684Z" fill="#263238"/>
<path d="M246.099 59.4062C246.281 60.1468 246.799 60.654 247.255 60.5424C247.712 60.4308 247.935 59.741 247.752 59.0004C247.57 58.2599 247.052 57.7527 246.596 57.8643C246.139 57.9759 245.916 58.6657 246.099 59.4062Z" fill="#263238"/>
<path d="M237.598 56.9918C236.915 57.1825 236.305 57.5751 235.849 58.1182C235.393 58.6612 235.111 59.3294 235.041 60.0352" stroke="#263238" stroke-width="0.973872" stroke-linecap="round" stroke-linejoin="round"/>
<path d="M248.422 54.415C248.422 54.415 246.626 53.0658 245.034 54.2223" stroke="#263238" stroke-width="0.973872" stroke-linecap="round" stroke-linejoin="round"/>
<path d="M246.332 66.9537L244.435 60.7351L249.751 65.1581C249.466 65.7984 248.974 66.3239 248.353 66.6497C247.733 66.9755 247.021 67.0826 246.332 66.9537Z" fill="#A02724"/>
<path opacity="0.19" d="M243.289 84.2806C242.522 84.4187 241.735 84.3925 240.98 84.2036C240.224 84.0147 239.518 83.6675 238.906 83.185C240.469 83.0328 243.056 82.4647 243.056 82.4647C243.1 83.0739 243.178 83.6801 243.289 84.2806Z" fill="black"/>
<path d="M247.783 98.4015V108.12L243.015 108.556C243.015 108.556 239.373 104.985 239.14 103.109C238.906 101.232 244.334 96.3727 247.783 98.4015Z" fill="#263238"/>
<path d="M247.042 107.106C247.042 107.106 254.214 133.481 257.643 146.669L253.738 154.501L247.144 147.917L243.583 107.532L247.042 107.106Z" fill="#263238"/>
<path d="M279.809 346.171L265.282 348.464C265.282 348.464 260.798 292.953 259.662 272.136C259.469 268.545 259.104 264.711 258.648 260.815C256.406 242.139 251.8 222.154 251.8 222.154C251.8 222.154 250.289 255.489 246.139 280.992C241.99 306.496 224.369 343.888 224.369 343.888L210.563 337.518C221.356 306.648 223.832 268.19 224.765 253.805C225.698 239.42 224.643 180.258 224.643 180.258L272.221 178.178C276.827 200.577 282.802 251.776 283.451 269.478C284.1 287.181 279.809 346.171 279.809 346.171Z" fill="#263238"/>
<path d="M277.232 350.421L278.003 362.088L269.401 364.015L268.498 350.969L277.232 350.421Z" fill="#B55B52"/>
<path d="M282.122 344.294L263.72 347.855L264.623 353.566L281.767 350.452L282.122 344.294Z" fill="#407BFF"/>
<path d="M221.397 345.501L216.315 356.315L208.148 353.15L213.596 341.88L221.397 345.501Z" fill="#B55B52"/>
<path d="M208.676 353.313L218.252 357.086C218.685 357.239 219.047 357.546 219.267 357.949C219.997 359.349 221.985 362.808 224.339 364.137C227.382 365.811 228.995 366.998 227.9 368.732C226.804 370.467 225.14 369.889 223.436 369.442C222.056 369.077 208.96 363.589 204.162 361.56C203.942 361.468 203.746 361.329 203.586 361.152C203.427 360.976 203.308 360.767 203.238 360.539C203.169 360.312 203.15 360.072 203.183 359.836C203.216 359.601 203.301 359.375 203.431 359.176L206.738 353.962C206.94 353.651 207.242 353.417 207.594 353.3C207.946 353.182 208.327 353.186 208.676 353.313Z" fill="#263238"/>
<path d="M269.228 363.569L279.373 361.591C279.811 361.502 280.266 361.578 280.651 361.804C282.021 362.585 285.561 364.431 288.29 364.248C291.749 364.035 293.758 364.147 293.768 366.206C293.778 368.266 292.074 368.671 290.39 369.25C289.03 369.686 275.041 372.121 269.878 373.013C269.643 373.053 269.402 373.041 269.172 372.978C268.942 372.916 268.728 372.804 268.546 372.65C268.363 372.497 268.216 372.306 268.115 372.09C268.014 371.874 267.961 371.639 267.96 371.4V365.202C267.953 364.826 268.074 364.458 268.305 364.161C268.536 363.864 268.862 363.655 269.228 363.569Z" fill="#263238"/>
<path d="M229.513 341.545L209.812 337.305L208.077 343.026L225.962 348.281L229.513 341.545Z" fill="#407BFF"/>
<path opacity="0.61" d="M258.627 260.947C256.385 242.261 251.78 222.286 251.78 222.286L249.832 197.412C249.832 197.412 260.829 240.425 258.627 260.947Z" fill="black"/>
<path d="M231.42 92.8425C235.033 95.324 239.049 97.1603 243.289 98.2698L240.134 107.461C240.134 107.461 232.495 103.961 228.62 100.786L231.42 92.8425Z" fill="white"/>
<path d="M243.289 98.2697L248.422 106.243C250.793 102.984 252.515 99.2985 253.494 95.3887L247.702 91.1787C247.702 91.1787 245.216 96.4944 243.289 98.2697Z" fill="white"/>
</g>
<defs>
<linearGradient id="paint0_linear_35_467" x1="31.1173" y1="360.487" x2="562.739" y2="264.697" gradientUnits="userSpaceOnUse">
<stop stop-color="#00C3FF"/>
<stop offset="1" stop-color="#FFFF1C"/>
</linearGradient>
<clipPath id="clip0_35_467">
<rect width="360.282" height="377" fill="white" transform="translate(117)"/>
</clipPath>
</defs>
</svg>
